<svg width="1719" height="426" xmlns="http://www.w3.org/2000/svg" xmlns:xlink="http://www.w3.org/1999/xlink" xml:space="preserve" overflow="hidden"><g transform="translate(-751 -385)"><g><text fill="#0D1117" fill-opacity="1" font-family="Inter,Inter_MSFontService,sans-serif" font-style="normal" font-variant="normal" font-weight="700" font-stretch="normal" font-size="202" text-anchor="start" direction="ltr" writing-mode="lr-tb" unicode-bidi="normal" text-decoration="none" transform="matrix(1 0 0 1 1076.27 642)">MedSimples</text><text fill="#0D1117" fill-opacity="1" font-family="Inter,Inter_MSFontService,sans-serif" font-style="normal" font-variant="normal" font-weight="700" font-stretch="normal" font-size="202" text-anchor="start" direction="ltr" writing-mode="lr-tb" unicode-bidi="normal" text-decoration="none" transform="matrix(1 0 0 1 2296.58 642)"> </text><g><g><g><path d="M21.6667 102.917C21.6673 70.0096 48.3441 43.3339 81.251 43.3344 98.158 43.3347 114.269 50.5177 125.569 63.0933 127.858 65.5403 131.696 65.6688 134.144 63.3802 134.242 63.2878 134.339 63.1921 134.431 63.0933 156.269 38.5564 193.862 36.3678 218.399 58.2052 231.154 69.5566 238.414 85.8423 238.333 102.917 238.333 127.725 222.083 146.25 205.833 162.5L146.337 220.057C138.479 229.083 124.793 230.028 115.768 222.171 115.086 221.576 114.44 220.939 113.837 220.263L54.1666 162.5C37.9166 146.25 21.6667 127.833 21.6667 102.917" stroke="#1E66F5" stroke-width="21.6667" stroke-linecap="round" stroke-linejoin="round" stroke-miterlimit="4" stroke-opacity="1" fill="none" fill-rule="nonzero" transform="matrix(1 0 0 1 756 439)"/></g></g></g></g></g></svg>